<?xml version="1.0" encoding="UTF-8"?>
<svg id="Layer_2" data-name="Layer 2" xmlns="http://www.w3.org/2000/svg" viewBox="0 0 130.13 87.72">
  <defs>
    <style>
      .cls-1 {
        fill: #fff;
      }

      .cls-2 {
        fill: #f6660f;
      }
    </style>
  </defs>
  <g id="Layer_1-2" data-name="Layer 1">
    <g>
      <path class="cls-2" d="M130.13,39.57c-1.75-.62-3.46-1.37-5.21-2-13.95-5-29.38-8.33-44.16-9.63C53.36,25.54,25.55,29.93,0,39.71c1.52-1.2,3.25-2.17,4.95-3.1,30.84-16.99,79.06-17.89,111.31-4.38,4.8,2.01,9.61,4.38,13.87,7.35Z"/>
      <path class="cls-1" d="M23.52,35.1c.64,4.28,1.06,8.78,5.29,11.03,3.54,1.88,12.44,2,16.64,2.13,1.56.05,2.83.26,4.45-.04,5.96-1.11,6.54-8.95,14.46-9.49,6.15-.42,7.92,2.71,11.49,6.59s6.61,3.18,11.35,2.95c3.56-.17,8.29-.42,11.72-1.17,6.15-1.35,7.35-6.44,7.82-12.01l3.92.92c-.56,3.33-.85,6.76-2.88,9.57-3.38,4.67-7.21,5.17-12.6,5.75-4.57.49-13.76,1.55-17.77-.3-4.32-1.99-6.51-7.93-10.98-8.49-6.93-.87-7.87,6.11-13.15,8.49-3.93,1.78-12.08.86-16.51.44-6.27-.59-12.33-1.41-15.32-7.79-.8-1.71-1.64-5.53-1.7-7.42,0-.13-.06-.29.08-.36l3.69-.81Z"/>
      <path class="cls-1" d="M110.66,27.67c-.53-.41-1.19-.57-1.82-.77s-1.5-.56-2.1-.35c-.17-2.84-.53-5.6-1.89-8.13-2.96-5.52-11.97-5.89-17.67-6.56-16.17-1.92-33.15-1.66-49.25.87-2.41.38-5.49.81-7.75,1.64-5.23,1.92-6.22,6.89-6.57,11.92-1.04.4-2.15.61-3.2,1-.29.11-.81.67-.81.18.02-1.01.18-2.46.3-3.48,1.66-13.49,9.63-14.15,21.22-15.62,16.13-2.04,32.73-2.12,48.85,0,3.34.44,7.22.94,10.42,1.9,8.23,2.47,10.06,9.59,10.26,17.41Z"/>
      <path class="cls-1" d="M105.2,9.32l-1.78-.95c-12.99-3.75-27.37-4.33-40.86-4.09-11.74.21-23.77.88-35.13,3.95l-2.49,1.16c1.31-2.16,3.16-4.17,5.37-5.42,2.81-1.59,6.25-1.92,9.43-2.34,15.02-1.98,31.14-2.15,46.2-.58,7.19.75,14.87.9,19.04,7.72.11.17.27.31.22.54Z"/>
      <polygon class="cls-1" points="33.9 62.27 39.37 76.42 44.97 62.27 50.85 62.27 50.85 82.02 46.93 82.02 46.93 67.73 40.98 82.03 37.61 81.88 31.8 67.73 31.8 82.02 27.88 82.02 27.88 62.27 33.9 62.27"/>
      <path class="cls-1" d="M123.62,62.27c2.53.23,5.18,1.64,5.85,4.23.69,2.65-.27,5.5-2.84,6.62.5.4,1.15.58,1.62,1.05,1.43,1.45.98,4.21,1.2,6.08.08.67.47,1.13.54,1.77h-4.34c-.98-2.1.57-6.05-2.14-7.03-.14-.05-.81-.25-.87-.25h-6.23v7.28h-3.99l-.21-19.75h11.42ZM123.2,65.77h-6.79v5.53l.21.21h5.6c.56,0,1.68-.31,2.16-.64,1.6-1.1,1.58-3.83-.17-4.71-.15-.07-.9-.37-1.01-.39Z"/>
      <path class="cls-1" d="M17.51,68.43h-3.85c-.37-.68-.29-1.41-.91-2.04-1.37-1.39-6.36-1.53-7.65-.07-1.68,1.92.74,3.06,2.32,3.44,4.48,1.09,11.16.84,10.51,7.42-.56,5.59-9.12,5.89-13.17,4.63C1.85,80.9-.05,78.73,0,75.57l4.07-.08c.24,1.62.77,2.66,2.38,3.23,1.9.68,7.34.82,7.43-2.1.05-1.62-1.55-2.07-2.81-2.38-3.66-.89-9.91-.77-10.49-5.76-.73-6.22,6.59-7.31,11.2-6.43,3.36.64,5.82,2.77,5.74,6.38Z"/>
      <path class="cls-1" d="M58.27,62.27v13.52c0,.25.58,1.33.78,1.6,1.63,2.11,6.48,2.14,7.93-.17.16-.26.67-1.48.67-1.71v-13.24h4.2v12.68c0,6.92-8.41,8.82-13.68,6.54-1.96-.85-4.25-3.32-4.25-5.56v-13.66h4.34Z"/>
      <polygon class="cls-1" points="95.6 62.27 100.37 68.85 105.27 62.27 110.1 62.27 102.96 71.86 110.52 82.02 105.69 82.02 100.37 74.88 95.18 82.02 90.49 82.02 97.89 71.98 90.77 62.27 95.6 62.27"/>
      <polygon class="cls-1" points="78.87 62.27 78.87 78.45 79.08 78.66 89.23 78.66 89.23 82.02 74.66 82.02 74.66 62.27 78.87 62.27"/>
      <rect class="cls-1" x="20.45" y="62.27" width="4.2" height="19.75"/>
      <path class="cls-1" d="M18.49,17.02c-1.43,3.7-1.81,7.73-1.84,11.68l-4.04,1.63c.1-2.02.1-4.08.28-6.09.11-1.24.3-3.44.81-4.51.83-1.73,2.99-2.5,4.79-2.7Z"/>
      <path class="cls-1" d="M117.67,30.33c-1.1-.79-2.58-1.29-3.91-1.55-.14-4-.41-7.98-1.83-11.76,1.89.22,4.08,1.04,4.83,2.94.39.99.52,2.36.63,3.43.23,2.29.26,4.63.28,6.93Z"/>
      <polygon class="cls-2" points="87.35 87.72 129.99 87.72 129.99 84.24 89.52 84.24 87.35 87.72"/>
    </g>
  </g>
</svg>